<?xml version="1.0" encoding="iso-8859-1"?>
<!-- Generator: Adobe Illustrator 19.0.0, SVG Export Plug-In . SVG Version: 6.00 Build 0)  -->
<svg version="1.1" id="Layer_1" xmlns="http://www.w3.org/2000/svg" xmlns:xlink="http://www.w3.org/1999/xlink" x="0px" y="0px"
	 viewBox="0 0 512 512" style="enable-background:new 0 0 512 512;" xml:space="preserve">
<path style="fill:#D8D8DA;" d="M215.04,344.747c-0.565,0-1.122,0.029-1.683,0.042L78.224,54.998
	c-27.335,12.747-39.163,45.24-26.416,72.577l112.049,240.289c-10.625,12.035-17.083,27.834-17.083,45.15
	c0,37.702,30.564,68.267,68.267,68.267s68.267-30.564,68.267-68.267S252.742,344.747,215.04,344.747z M215.04,440.32
	c-15.081,0-27.307-12.225-27.307-27.307s12.225-27.307,27.307-27.307s27.307,12.225,27.307,27.307S230.121,440.32,215.04,440.32z"/>
<path style="fill:#C5C5CA;" d="M215.04,344.747c-0.565,0-1.122,0.029-1.683,0.042L78.224,54.998
	c-12.995,6.059-22.475,16.585-27.487,28.895l120.947,259.372c0.43,0.922,1.361,1.484,2.378,1.483c0.005,0,0.011,0,0.016,0
	c37.702,0,68.267,30.564,68.267,68.267c0,30.567-20.091,56.437-47.787,65.136c7.492,2.354,15.538,3.456,23.896,3.046
	c35.135-1.719,63.539-30.504,64.806-65.659C284.661,376.685,253.581,344.747,215.04,344.747z"/>
<path style="fill:#EDEDED;" d="M215.323,54.998L80.19,344.79c-0.561-0.014-1.12-0.042-1.683-0.042
	c-37.702,0-68.267,30.564-68.267,68.267s30.564,68.267,68.267,68.267s68.267-30.564,68.267-68.267
	c0-17.315-6.459-33.115-17.083-45.15l112.049-240.289C254.486,100.239,242.659,67.745,215.323,54.998z M78.507,440.32
	c-15.081,0-27.307-12.225-27.307-27.307s12.225-27.307,27.307-27.307s27.307,12.225,27.307,27.307S93.588,440.32,78.507,440.32z"/>
<path style="fill:#D8D8DA;" d="M215.323,54.998L201.85,83.893c5.531,13.585,5.617,29.342-1.07,43.682L101.918,339.58
	c-7,15.012-7.455,32.27-1.173,47.595c3.266,7.968,5.068,16.691,5.068,25.838c0,30.567-20.091,56.437-47.787,65.136
	c6.754,2.122,13.959,3.226,21.438,3.124c35.971-0.496,65.771-29.441,67.248-65.384c0.758-18.439-5.815-35.327-17.024-48.024
	l112.049-240.289C254.486,100.239,242.659,67.745,215.323,54.998z"/>
<path style="fill:#BFA993;" d="M423.253,481.28h-40.96c-28.232,0-44.373-22.968-44.373-51.2V85.333
	c0-28.232,16.141-51.2,44.373-51.2h40.96c5.657,0,10.24,4.585,10.24,10.24V471.04C433.493,476.695,428.91,481.28,423.253,481.28z"/>
<path style="fill:#B29A7E;" d="M423.253,34.133H389.12c5.657,0,10.24,4.585,10.24,10.24V471.04c0,5.655-4.583,10.24-10.24,10.24
	h34.133c5.657,0,10.24-4.585,10.24-10.24V44.373C433.493,38.718,428.91,34.133,423.253,34.133z"/>
<g>
	<path style="fill:#2E2D31;" d="M501.76,81.92c5.657,0,10.24-4.585,10.24-10.24c0-5.655-4.583-10.24-10.24-10.24h-58.027V40.96
		h58.027c5.657,0,10.24-4.585,10.24-10.24s-4.583-10.24-10.24-10.24H378.88c-28.232,0-51.2,22.968-51.2,51.2v368.64
		c0,28.232,22.968,51.2,51.2,51.2h122.88c5.657,0,10.24-4.585,10.24-10.24s-4.583-10.24-10.24-10.24h-58.027v-20.48h58.027
		c5.657,0,10.24-4.585,10.24-10.24c0-5.655-4.583-10.24-10.24-10.24h-58.027V409.6h58.027c5.657,0,10.24-4.585,10.24-10.24
		s-4.583-10.24-10.24-10.24h-58.027v-20.48h58.027c5.657,0,10.24-4.585,10.24-10.24s-4.583-10.24-10.24-10.24h-58.027v-20.48h58.027
		c5.657,0,10.24-4.585,10.24-10.24s-4.583-10.24-10.24-10.24h-58.027v-20.48h58.027c5.657,0,10.24-4.585,10.24-10.24
		c0-5.655-4.583-10.24-10.24-10.24h-58.027v-20.48h58.027c5.657,0,10.24-4.585,10.24-10.24c0-5.655-4.583-10.24-10.24-10.24h-58.027
		V204.8h58.027c5.657,0,10.24-4.585,10.24-10.24s-4.583-10.24-10.24-10.24h-58.027v-20.48h58.027c5.657,0,10.24-4.585,10.24-10.24
		c0-5.655-4.583-10.24-10.24-10.24h-58.027v-20.48h58.027c5.657,0,10.24-4.585,10.24-10.24c0-5.655-4.583-10.24-10.24-10.24h-58.027
		V81.92H501.76z M348.16,440.32V71.68c0-16.94,13.782-30.72,30.72-30.72h44.373v430.08H378.88
		C361.942,471.04,348.16,457.26,348.16,440.32z"/>
	<path style="fill:#2E2D31;" d="M78.507,375.467c-20.704,0-37.547,16.843-37.547,37.547s16.843,37.547,37.547,37.547
		s37.547-16.843,37.547-37.547S99.211,375.467,78.507,375.467z M78.507,430.08c-9.411,0-17.067-7.655-17.067-17.067
		s7.655-17.067,17.067-17.067s17.067,7.655,17.067,17.067S87.918,430.08,78.507,430.08z"/>
	<path style="fill:#2E2D31;" d="M215.04,375.467c-20.704,0-37.547,16.843-37.547,37.547s16.843,37.547,37.547,37.547
		s37.547-16.843,37.547-37.547S235.744,375.467,215.04,375.467z M215.04,430.08c-9.411,0-17.067-7.655-17.067-17.067
		s7.655-17.067,17.067-17.067c9.411,0,17.067,7.655,17.067,17.067S224.451,430.08,215.04,430.08z"/>
	<path style="fill:#2E2D31;" d="M219.929,334.657L188.2,266.615l62.818-134.713c7.321-15.7,8.09-33.31,2.164-49.589
		c-5.924-16.279-17.834-29.275-33.534-36.596c-5.124-2.388-11.218-0.173-13.608,4.953l-59.269,127.102L87.504,50.67
		c-2.389-5.125-8.486-7.343-13.608-4.953c-15.7,7.321-27.61,20.318-33.534,36.596c-5.924,16.278-5.156,33.889,2.164,49.589
		l62.818,134.712l-31.728,68.043C32.595,337.188,0,371.365,0,413.013c0,43.289,35.217,78.507,78.507,78.507
		c29.225,0,54.753-16.063,68.267-39.813c13.514,23.75,39.043,39.813,68.267,39.813c43.289,0,78.507-35.217,78.507-78.507
		C293.547,371.365,260.952,337.188,219.929,334.657z M61.089,123.247c-5.008-10.742-5.535-22.792-1.481-33.93
		c2.859-7.855,7.756-14.594,14.163-19.642l61.705,132.327l-18.831,40.382L61.089,123.247z M78.507,471.04
		c-31.997,0-58.027-26.03-58.027-58.027s26.03-58.027,58.027-58.027c0.257,0,0.512,0.011,0.767,0.019l0.661,0.02
		c4.11,0.102,7.815-2.219,9.535-5.909L219.775,69.676c6.406,5.046,11.304,11.786,14.163,19.642
		c4.054,11.138,3.527,23.187-1.481,33.93L120.409,363.536c-1.722,3.69-1.091,8.051,1.604,11.104
		c9.363,10.606,14.52,24.235,14.52,38.373C136.533,445.01,110.503,471.04,78.507,471.04z M151.88,366.408
		c-1.864,2.522-3.568,5.145-5.106,7.851c-1.539-2.707-3.243-5.329-5.106-7.851l5.106-10.95L151.88,366.408z M215.04,471.04
		c-31.997,0-58.027-26.03-58.027-58.027c0-14.138,5.157-27.767,14.52-38.371c2.695-3.053,3.325-7.414,1.604-11.104l-15.065-32.309
		l18.831-40.382l27.173,58.271c1.72,3.69,5.449,6.001,9.535,5.909l0.661-0.021c0.255-0.008,0.509-0.019,0.767-0.019
		c31.997,0,58.027,26.03,58.027,58.027S247.037,471.04,215.04,471.04z"/>
</g>
<g>
</g>
<g>
</g>
<g>
</g>
<g>
</g>
<g>
</g>
<g>
</g>
<g>
</g>
<g>
</g>
<g>
</g>
<g>
</g>
<g>
</g>
<g>
</g>
<g>
</g>
<g>
</g>
<g>
</g>
</svg>
