<svg id="_01-Lotion" data-name="01-Lotion" xmlns="http://www.w3.org/2000/svg" viewBox="0 0 64 64"><title>01-Lotion</title><path d="M36,24l-.02.03a.3.3,0,0,1-.04-.03H14.06a.3.3,0,0,1-.04.03L14,24V20H36Z" style="fill:#e9edf5"/><path d="M36,24.015l-.02.015a.36.36,0,0,1-.04-.015H14.06a.36.36,0,0,1-.04.015L14,24.015V22H36Z" style="fill:#dce1eb"/><rect x="23" y="12" width="4" height="8" style="fill:#9196aa"/><polygon points="28 7 28 12 27 12 23 12 22 12 22 7 28 7" style="fill:#bec3d2"/><polygon points="40 5 37 8 35 6 30 6 30 2 37 2 40 5" style="fill:#bec3d2"/><path d="M30,2V6a1,1,0,0,1-1,1H21a1,1,0,0,1-1-1V2a1,1,0,0,1,1-1h8A1,1,0,0,1,30,2Z" style="fill:#e9edf5"/><path d="M29,5H21a1,1,0,0,1-1-1V6a1,1,0,0,0,1,1h8a1,1,0,0,0,1-1V4A1,1,0,0,1,29,5Z" style="fill:#dce1eb"/><path d="M51,25a3,3,0,0,1-6,0c0-1.66,3-5,3-5S51,23.34,51,25Z" style="fill:#ffb9d5"/><path d="M48,20s-.45.5-1,1.211c.873,1.123,2,2.771,2,3.789a2.986,2.986,0,0,1-2,2.817A2.973,2.973,0,0,0,51,25C51,23.34,48,20,48,20Z" style="fill:#ffe1ed"/><path d="M45,15a3,3,0,0,1-6,0c0-1.66,3-5,3-5S45,13.34,45,15Z" style="fill:#ffb9d5"/><path d="M37,41H33v4h1v3l-3,3v8s0,2,4,4H13.24S5,51.18,5,40.55c0-10.22,8.37-16.08,9.02-16.52a.3.3,0,0,0,.04-.03H35.94a.3.3,0,0,0,.04.03c.65.44,9.02,6.3,9.02,16.52,0,.15,0,.3-.01.45H37Z" style="fill:#ffb9d5"/><path d="M31,59V51l3-3V45H33V41H30v4h1v3l-3,3v8s0,2,4,4h3C31,61,31,59,31,59Z" style="fill:#ffb9d5"/><path d="M35.98,24.03a.3.3,0,0,1-.04-.03h-3a.3.3,0,0,0,.04.03c.65.44,9.02,6.3,9.02,16.52,0,.15,0,.3-.01.45h3c.01-.15.01-.3.01-.45C45,30.33,36.63,24.47,35.98,24.03Z" style="fill:#ffe1ed"/><path d="M17.02,24.03a.3.3,0,0,0,.04-.03h-3a.3.3,0,0,1-.04.03C13.37,24.47,5,30.33,5,40.55,5,51.18,13.24,63,13.24,63h3S8,51.18,8,40.55C8,30.33,16.37,24.47,17.02,24.03Z" style="fill:#ff73a5"/><path d="M42,10s-.45.5-1,1.211c.873,1.123,2,2.771,2,3.789a2.986,2.986,0,0,1-2,2.817A2.973,2.973,0,0,0,45,15C45,13.34,42,10,42,10Z" style="fill:#ffe1ed"/><rect x="13" y="33" width="24" height="18" style="fill:#e9edf5"/><polygon points="37 41 34 41 30 41 30 45 31 45 31 48 28 51 37 51 37 41" style="fill:#bec3d2"/><path d="M53,48V45h1V41H37V51H28v8s0,2,4,4H52c4-2,4-4,4-4V51Z" style="fill:#ff73a5"/><polygon points="57 41 57 45 56 45 53 45 53 41 57 41" style="fill:#5d9e73"/><rect x="45" y="41" width="4" height="4" style="fill:#5d9e73"/><rect x="37" y="41" width="4" height="4" style="fill:#5d9e73"/><rect x="49" y="41" width="4" height="4" style="fill:#a5e887"/><polygon points="45 41 45 45 41 45 41 41 44.99 41 45 41" style="fill:#a5e887"/><polygon points="37 41 37 45 34 45 33 45 33 41 37 41" style="fill:#a5e887"/><rect x="35" y="51" width="20" height="8" style="fill:#a5e887"/><rect x="35" y="55" width="20" height="4" style="fill:#9adb86"/><path d="M55,51H35v8H55Zm1-3,3,3v8s0,2-4,4H35c-4-2-4-4-4-4V51l3-3V45H56Z" style="fill:#e9ffc4"/><path d="M34,59V51l3-3V45H34v3l-3,3v8s0,2,4,4h3C34,61,34,59,34,59Z" style="fill:#c2fa93"/><path d="M59.707,50.293,57,47.586V46a1,1,0,0,0,1-1V41a1,1,0,0,0-1-1H45.973c-.263-9.325-7-15.009-8.973-16.468V20a1,1,0,0,0-1-1H28V13a1,1,0,0,0,1-1V8a1.993,1.993,0,0,0,1.722-1h3.864l1.707,1.707a1,1,0,0,0,1.414,0l3-3a1,1,0,0,0,0-1.414l-3-3A1,1,0,0,0,37,1H30.722A1.993,1.993,0,0,0,29,0H21a2,2,0,0,0-2,2V6a2,2,0,0,0,2,2v4a1,1,0,0,0,1,1v6H14a1,1,0,0,0-1,1v3.532c-2.009,1.488-9,7.36-9,17.018,0,10.82,8.076,22.529,8.42,23.022a1,1,0,0,0,.82.428H55a1,1,0,0,0,.447-.1C59.872,61.682,60,59.268,60,59V51A1,1,0,0,0,59.707,50.293ZM38.586,5,37,6.586,35.707,5.293A1,1,0,0,0,35,5H31V3h5.586ZM56,44H54V42h2ZM34,44V42h2v2Zm4-2h2v2H38Zm4,0h2v2H42Zm4,0h2v2H46Zm4,0h2v2H50ZM21,2h8V6H21Zm6,6v3H23V8Zm-3,5h2v6H24Zm11,8v2H15V21ZM13.774,62C12.337,59.812,6,49.638,6,40.55,6,31.5,13.062,25.956,14.379,25H35.621c1.3.942,8.093,6.285,8.37,15H33a1,1,0,0,0-1,1v4a1,1,0,0,0,1,1v1.586l-2.707,2.707A1,1,0,0,0,30,51v8a4.425,4.425,0,0,0,1.711,3ZM54.76,62H35.247C32.219,60.428,32,59,32,59V51.414l2.707-2.707A1,1,0,0,0,35,48V46H55v2a1,1,0,0,0,.293.707L58,51.414v7.539C58,58.968,57.822,60.411,54.76,62Z"/><path d="M55,50H35a1,1,0,0,0-1,1v8a1,1,0,0,0,1,1H55a1,1,0,0,0,1-1V51A1,1,0,0,0,55,50Zm-1,8H36V52H54Z"/><path d="M14,34H36v4h2V33a1,1,0,0,0-1-1H13a1,1,0,0,0-1,1V51a1,1,0,0,0,1,1H28V50H14Z"/><path d="M42,19a4,4,0,0,0,4-4c0-1.945-2.712-5.063-3.256-5.668a1.033,1.033,0,0,0-1.488,0C40.712,9.937,38,13.055,38,15A4,4,0,0,0,42,19Zm0-7.452c1.062,1.332,2,2.831,2,3.452a2,2,0,0,1-4,0C40,14.361,40.939,12.873,42,11.548Z"/><path d="M48,29a4,4,0,0,0,4-4c0-1.945-2.712-5.063-3.256-5.668a1.033,1.033,0,0,0-1.488,0C46.712,19.937,44,23.055,44,25A4,4,0,0,0,48,29Zm0-7.452c1.062,1.332,2,2.831,2,3.452a2,2,0,0,1-4,0C46,24.361,46.939,22.873,48,21.548Z"/></svg>