<svg xmlns="http://www.w3.org/2000/svg" width="128" height="128" viewBox="0 0 128 128">
  <title>GUITAR</title>
  <g>
    <path d="M69.543,51.188c-5.3-4.405-15.2-10.476-22.974-2.7-7.436,7.437-1.711,15.708-18.451,17.06-20.4,1.647-31.63,23.449-10.371,44.709S60.809,120.28,62.456,99.882c1.352-16.74,9.623-11.015,17.06-18.451,7.772-7.773,1.7-17.676-2.7-22.974Z" fill="#ffb65f"/>
    <rect x="23.362" y="90.666" width="21.474" height="6.471" transform="translate(76.385 3.391) rotate(45)" fill="#7a6d79"/>
    <path d="M57.822,70.178a8.612,8.612,0,0,1,2.488,5.25h0l45.037-46.32-6.457-6.457L52.571,67.689h0A8.618,8.618,0,0,1,57.822,70.178Z" fill="#dc8758"/>
    <path d="M105.348,29.109l4.868-1.2,11.477-11.477s-.118-3.025-3.607-6.515-6.515-3.607-6.515-3.607L100.094,17.784l-1.2,4.868Z" fill="#7a6d79"/>
    <path d="M57.822,82.406a8.647,8.647,0,1,1,0-12.228A8.646,8.646,0,0,1,57.822,82.406Z" fill="#7a6d79"/>
    <g>
      <path d="M25.374,67.645a1.681,1.681,0,0,0,.306-.027c.841-.148,1.71-.259,2.579-.33.542-.043,1.059-.094,1.556-.151a1.75,1.75,0,0,0-.4-3.477q-.687.08-1.436.14c-.979.079-1.957.2-2.905.372a1.75,1.75,0,0,0,.3,3.473Z"/>
      <path d="M119.323,8.677c-3.862-3.862-7.3-4.1-7.683-4.118a1.686,1.686,0,0,0-1.306.511L98.856,16.547a1.766,1.766,0,0,0-.462.817l-1.083,4.383L69.423,48.863c-9.348-7.242-17.865-7.842-24.091-1.616a20.879,20.879,0,0,0-4.906,8.42,12.769,12.769,0,0,1-2.644,4.957,1.75,1.75,0,1,0,2.463,2.486,15.808,15.808,0,0,0,3.468-6.239,17.725,17.725,0,0,1,4.094-7.149c3.394-3.394,9.417-5.731,19.087,1.6l-15,14.583c-.063,0-.125-.009-.188-.009a10.4,10.4,0,1,0,10.4,10.4c0-.063-.008-.124-.009-.187l14.584-15c7.331,9.671,4.994,15.693,1.6,19.087a17.725,17.725,0,0,1-7.149,4.094c-4.859,1.778-9.448,3.458-10.417,15.454-.731,9.042-5.763,16.343-13.134,19.054-8.739,3.215-19.164-.35-28.594-9.78-7.93-7.931-11.757-16.621-10.776-24.472a18.759,18.759,0,0,1,9.349-13.962,1.75,1.75,0,0,0-1.789-3.008A22.191,22.191,0,0,0,4.734,84.109C3.617,93.055,7.8,102.779,16.51,111.49c7.838,7.838,16.424,11.967,24.483,11.966a22.471,22.471,0,0,0,7.793-1.376c8.666-3.187,14.573-11.639,15.414-22.057.788-9.762,3.71-10.831,8.132-12.449a20.882,20.882,0,0,0,8.421-4.906c6.226-6.227,5.626-14.744-1.617-24.09L92.977,44.344a1.75,1.75,0,0,0-2.51-2.44L61.181,72.023a10.313,10.313,0,0,0-5.2-5.2l42.9-41.71,4.017,4.017-5.941,6.111a1.75,1.75,0,0,0,2.51,2.439l6.8-6.988,4.382-1.083a1.754,1.754,0,0,0,.817-.462l11.478-11.477a1.753,1.753,0,0,0,.511-1.306C123.427,15.98,123.185,12.539,119.323,8.677ZM58.6,76.292a6.9,6.9,0,1,1-2.019-4.876A6.851,6.851,0,0,1,58.6,76.292Zm50.72-49.968-3.437.849-5.059-5.06.849-3.436L112.165,8.189a10.821,10.821,0,0,1,4.684,2.962,10.842,10.842,0,0,1,2.964,4.683Z"/>
      <path d="M38.166,105.018a1.749,1.749,0,0,0,2.475,0l4.575-4.575a1.752,1.752,0,0,0,0-2.475L30.031,82.784a1.75,1.75,0,0,0-2.474,0l-4.576,4.575a1.752,1.752,0,0,0,0,2.475ZM28.794,86.5,41.5,99.206l-2.1,2.1L26.693,88.6Z"/>
    </g>
  </g>
</svg>
