<?xml version="1.0" encoding="utf-8"?>
<!-- Generator: Adobe Illustrator 23.0.6, SVG Export Plug-In . SVG Version: 6.00 Build 0)  -->
<svg version="1.1" id="Layer_1" xmlns="http://www.w3.org/2000/svg" xmlns:xlink="http://www.w3.org/1999/xlink" x="0px" y="0px"
	 viewBox="0 0 64 64" style="enable-background:new 0 0 64 64;" xml:space="preserve">
<style type="text/css">
	.st0{fill:#EC4C98;}
	.st1{fill:none;}
	.st2{fill:#CE307B;}
	.st3{fill:#A88967;}
	.st4{fill:#E88793;}
	.st5{fill:#F7C0CD;}
	.st6{fill:#FFD067;}
	.st7{fill:#EC635F;}
	.st8{fill:#CC4948;}
	.st9{fill:#EA3B4F;}
	.st10{fill:#FDE373;}
	.st11{fill:#9ECAE0;}
	.st12{fill:#010101;}
	.st13{fill:#F8B2B3;}
	.st14{fill:#CCCCCC;}
	.st15{fill:#683D17;}
	.st16{fill:#971D21;}
	.st17{fill:#D32C39;}
	.st18{fill:#EB9E2D;}
	.st19{fill:#F9BF73;}
	.st20{fill:#D46360;}
	.st21{fill:#EAEEF1;}
	.st22{fill:#ED6F6E;}
	.st23{fill:#FAC2C3;}
	.st24{fill:#FDF5A3;}
	.st25{fill:#F49DC3;}
	.st26{fill:#D85DA0;}
	.st27{fill:#F7A4A6;}
	.st28{fill:#FFE09C;}
	.st29{fill:#D25252;}
	.st30{fill:none;stroke:#010101;stroke-width:2;stroke-miterlimit:10;}
	.st31{fill:#DFE568;}
	.st32{fill:#D0202B;}
	.st33{fill:#66A9B2;}
	.st34{fill:#8BCEDB;}
	.st35{fill:#ACDFE6;}
	.st36{fill:#F58D95;}
	.st37{fill:#F26C76;}
	.st38{fill:#F7A6AE;}
	.st39{fill:#FDE588;}
	.st40{fill:#853223;}
	.st41{fill:#C6877E;}
	.st42{fill:#C32026;}
	.st43{fill:#969595;}
	.st44{fill:#F9B4AB;}
	.st45{fill:#FBCFC8;}
	.st46{fill:#DC326F;}
	.st47{fill:#F7FAFC;}
	.st48{fill:#F6EFE8;}
	.st49{fill:#7DC8C7;}
	.st50{fill:#E27F86;}
	.st51{fill:#FFFFFF;}
	.st52{fill:#BEDDF4;}
	.st53{fill:#FBB03B;}
	.st54{fill:#F47D4E;}
	.st55{fill:#F176A8;}
	.st56{fill:#ED227C;}
	.st57{fill:#ED99C1;}
	.st58{fill:#FDF053;}
	.st59{fill:#F9B9A2;}
	.st60{fill:#F09B78;}
	.st61{fill:none;stroke:#000000;stroke-width:2;stroke-miterlimit:10;}
	.st62{fill:none;stroke:#010101;stroke-width:2.5936;stroke-miterlimit:10;}
	.st63{fill:none;stroke:#010101;stroke-width:2.6898;stroke-miterlimit:10;}
	.st64{fill:none;stroke:#010101;stroke-width:1.8138;stroke-miterlimit:10;}
	.st65{fill:none;stroke:#010101;stroke-width:1.9508;stroke-miterlimit:10;}
	.st66{fill:none;stroke:#010101;stroke-width:1.9031;stroke-miterlimit:10;}
	.st67{fill:none;stroke:#010101;stroke-width:1.5453;stroke-miterlimit:10;}
	.st68{fill:none;stroke:#010101;stroke-width:1.7277;stroke-miterlimit:10;}
	.st69{opacity:0.3;}
	.st70{opacity:0.3;fill:#FFFFFF;}
</style>
<g id="Vector">
	<g id="kutex">
		<polygon class="st40" points="27.08,24.95 12.65,24.95 14.07,2.55 25.19,2.55 		"/>
		<polygon class="st41" points="27.54,30.37 12.31,30.37 12.65,24.95 27.08,24.95 		"/>
		<path class="st42" d="M29,61.71H10.7c-4.88-9.17-7.96-18.51-0.15-28.84h18.3C37.11,41.15,35.74,51.02,29,61.71z"/>
		<rect x="15.11" y="30.37" class="st43" width="9.52" height="2.49"/>
		<path class="st43" d="M51.55,2.55c0,0-0.15,9.37-2.2,9.52c0,0-0.18,0.12-0.47,0.12c-0.85,0-2.64-1.07-3.19-9.64H51.55z"/>
		<rect x="48.45" y="12.19" class="st12" width="0.88" height="21.18"/>
		<polygon class="st41" points="56.5,33.37 56.16,38.8 41.73,38.8 41.28,33.37 		"/>
		<polygon class="st40" points="56.16,38.8 54.75,61.19 43.62,61.19 41.73,38.8 		"/>
	</g>
</g>
<g id="Line">
	<g id="kutex_1_">
		<polygon class="st30" points="27.08,24.95 12.65,24.95 14.07,2.55 25.19,2.55 		"/>
		<polygon class="st30" points="27.54,30.37 12.31,30.37 12.65,24.95 27.08,24.95 		"/>
		<path class="st30" d="M29,61.71H10.7c-4.88-9.17-7.96-18.51-0.15-28.84h18.3C37.11,41.15,35.74,51.02,29,61.71z"/>
		<rect x="15.11" y="30.37" class="st30" width="9.52" height="2.49"/>
		<path class="st30" d="M51.55,2.55c0,0-0.15,9.37-2.2,9.52c0,0-0.18,0.12-0.47,0.12c-0.85,0-2.64-1.07-3.19-9.64H51.55z"/>
		<rect x="48.45" y="12.19" class="st30" width="0.88" height="21.18"/>
		<polygon class="st30" points="56.5,33.37 56.16,38.8 41.73,38.8 41.28,33.37 		"/>
		<polygon class="st30" points="56.16,38.8 54.75,61.19 43.62,61.19 41.73,38.8 		"/>
	</g>
</g>
<g id="shadow">
	<path class="st69" d="M49.33,12.19h-0.45h-0.43v21.18h-0.39c0.73,1.86,1.45,3.73,2.18,5.59c0.45,7.41,0.9,14.82,1.35,22.23
		c1.05,0,2.1,0,3.16,0l1.42-22.39l0.34-5.43c-2.39,0-4.78,0-7.17,0C49.33,26.31,49.33,19.25,49.33,12.19z"/>
	<path class="st69" d="M33.81,40.75c-0.3-1.09-0.9-2.71-2.09-4.4c-1.21-1.72-2.56-2.83-3.49-3.49h-2.69v-2.49h1.85l-0.29-5.43
		L25.9,2.55h-5.36l1.2,22.39l0.29,5.43h-1.85v2.49h2.69c5.24,8.29,4.37,18.16,0.09,28.84c2.02,0,4.03,0,6.05,0
		c0.84-1.29,1.72-2.81,2.55-4.54c0.92-1.92,1.59-3.72,2.09-5.31C33.7,48.15,33.75,44.45,33.81,40.75z"/>
	<path class="st69" d="M51.55,2.55h-5.86c0.55,8.57,2.33,9.64,3.19,9.64c0.29,0,0.47-0.12,0.47-0.12
		C51.4,11.92,51.55,2.55,51.55,2.55z"/>
</g>
<g id="Highligth">
	<g id="dress_3_">
	</g>
	<g id="heels_3_">
	</g>
	<g id="sneakers_3_">
	</g>
	<g id="brush_3_">
	</g>
	<g id="lipstick_3_">
	</g>
	<g id="powder_3_">
	</g>
	<g id="eye_shadow_3_">
	</g>
	<g id="hat_3_">
	</g>
	<g id="boots_3_">
	</g>
	<g id="earring_1_">
	</g>
	<g id="hair_straightener_3_">
	</g>
	<g id="hair_dyer">
	</g>
	<g id="cream_3_">
	</g>
	<g id="long_shirt_3_">
	</g>
	<g id="hot_pents_1_">
	</g>
	<g id="dress_party_3_">
	</g>
	<g id="kutex_3_">
	</g>
	<g id="mirror_3_">
	</g>
	<g id="parfume_3_">
	</g>
	<polygon class="st70" points="48.45,33.37 49.33,33.37 49.33,12.19 48.88,12.19 48.45,12.19 	"/>
	<path class="st70" d="M48.26,7.83c-0.06-0.76-0.06-1.79,0.18-2.97c0.19-0.93,0.48-1.71,0.75-2.3h-2.49c-0.06,6,0.32,7.74,0.74,8.03
		c0.03,0.02,0.83,0.57,0.83,0.57l0,0c-0.09-0.42-0.17-0.93-0.18-1.53C48.07,8.91,48.16,8.3,48.26,7.83z"/>
	<path class="st70" d="M15.55,33.27l1.76-2.45l0.34-5.35l1.42-22.08h-5l-1.42,22.08l-0.34,5.35h2.8v2.45h-4.56
		C2.74,43.46,5.82,52.67,10.7,61.7h5C10.82,52.67,7.74,43.46,15.55,33.27z"/>
	<polygon class="st70" points="46.28,33.37 41.28,33.37 41.73,38.8 43.62,61.19 48.62,61.19 46.73,38.8 	"/>
</g>
</svg>
