<svg xmlns="http://www.w3.org/2000/svg" width="128" height="128" viewBox="0 0 128 128">
  <title>SEARCH</title>
  <g>
    <g>
      <path d="M91.283,36.717a28.108,28.108,0,0,0-43.239,35.5L30.089,90.176a5.469,5.469,0,0,0,7.735,7.735L55.779,79.956a28.108,28.108,0,0,0,35.5-43.239Z" fill="#318fb5"/>
      <path d="M61.212,72.088a18.54,18.54,0,0,1-2.915-28.6,18.54,18.54,0,1,1,2.915,28.6Z" fill="#b8d8d3"/>
    </g>
    <g>
      <path d="M33.956,101.26a7.217,7.217,0,0,1-5.1-12.322L45.814,71.975a29.95,29.95,0,0,1-4.049-11.811,1.749,1.749,0,1,1,3.474-.417,26.379,26.379,0,0,0,4.258,11.5,1.748,1.748,0,0,1-.216,2.212L31.326,91.413a3.72,3.72,0,1,0,5.261,5.26L54.542,78.719a1.751,1.751,0,0,1,2.212-.216A26.343,26.343,0,1,0,47.029,46.55a1.75,1.75,0,0,1-3.236-1.332A29.863,29.863,0,1,1,56.024,82.186L39.062,99.148A7.2,7.2,0,0,1,33.956,101.26ZM71.369,76.872a20.16,20.16,0,0,1-11.12-3.323h0a20.725,20.725,0,0,1-5.794-5.8,20.32,20.32,0,1,1,16.917,9.119Zm-9.194-6.245a16.791,16.791,0,1,0-4.8-4.8,17.154,17.154,0,0,0,4.8,4.8ZM43.48,55.178a1.666,1.666,0,0,1-.2-.011,1.75,1.75,0,0,1-1.543-1.935c.053-.468.116-.935.192-1.4a1.75,1.75,0,1,1,3.455.554c-.066.412-.121.824-.168,1.239A1.752,1.752,0,0,1,43.48,55.178Z" fill="#172956"/>
      <path d="M71.369,76.872a20.16,20.16,0,0,1-11.12-3.323A20.295,20.295,0,1,1,85.755,70.94h0A20.328,20.328,0,0,1,71.369,76.872Zm.038-37.062A16.788,16.788,0,0,0,57.373,65.825a17.155,17.155,0,0,0,4.805,4.8A16.793,16.793,0,1,0,71.407,39.81ZM84.518,69.7h0Z" fill="#172956"/>
    </g>
  </g>
</svg>
