<?xml version="1.0" encoding="iso-8859-1"?>
<!-- Generator: Adobe Illustrator 19.0.0, SVG Export Plug-In . SVG Version: 6.00 Build 0)  -->
<svg xmlns="http://www.w3.org/2000/svg" xmlns:xlink="http://www.w3.org/1999/xlink" version="1.1" id="Layer_1" x="0px" y="0px" viewBox="0 0 512 512" style="enable-background:new 0 0 512 512;" xml:space="preserve">
<polygon style="fill:#E0E0E2;" points="343.449,368.782 343.449,411.092 7.805,411.092 7.805,7.613 67.7,7.613 100.616,7.613   343.449,7.613 343.449,164.962 "/>
<rect x="325.432" y="347.633" transform="matrix(-0.7071 -0.7071 0.7071 -0.7071 363.324 877.7386)" style="fill:#ADABB1;" width="76.031" height="31.978"/>
<path style="fill:#565159;" d="M502.159,461.517l-40.826,40.826c-2.725,2.725-7.14,2.725-9.865,0l-81.556-81.556  c-2.725-2.725-2.725-7.14,0-9.865l40.826-40.826c2.724-2.724,7.14-2.724,9.865,0l81.556,81.556  C504.884,454.375,504.884,458.792,502.159,461.517z"/>
<path style="fill:#ADABB1;" d="M342.75,7.613H99.917H67H7.106v52.264c60.661,0,280.63,0,335.645,0V7.613H342.75z"/>
<g>
	<polygon style="fill:#FFFFFF;" points="64.614,100.987 108.964,100.987 108.964,168.994 40.956,168.994 40.956,100.987  "/>
	<rect x="40.96" y="199.716" style="fill:#FFFFFF;" width="68.007" height="68.007"/>
	<rect x="40.96" y="298.092" style="fill:#FFFFFF;" width="68.007" height="68.007"/>
	<polygon style="fill:#FFFFFF;" points="160.929,168.994 140.924,168.994 140.924,100.987 208.931,100.987 208.931,134.991  "/>
	<polygon style="fill:#FFFFFF;" points="242.619,128.012 242.619,100.987 310.627,100.987 310.627,139.778  "/>
</g>
<polygon style="fill:#4AA9E7;" points="204.604,332.1 204.604,228.782 340.542,228.782 367.351,228.782 355.997,290.246   321.396,337.132 261.119,366.104 208.931,354.712 "/>
<g>
	<circle style="opacity:0.2;fill:#FFFFFF;enable-background:new    ;" cx="252.574" cy="256.32" r="102.863"/>
	
		<rect x="136.746" y="235.249" transform="matrix(-0.7071 0.7071 -0.7071 -0.7071 606.6693 257.0917)" style="opacity:0.33;fill:#FFFFFF;enable-background:new    ;" width="226.686" height="37.884"/>
</g>
<path style="fill:#FF6746;" d="M343.223,164.966c-49.274-49.275-129.165-49.275-178.439,0c-49.274,49.274-49.274,129.165,0,178.439  s129.165,49.275,178.439,0S392.497,214.242,343.223,164.966z M319.226,319.41c-36.022,36.022-94.425,36.022-130.447,0  s-36.022-94.425,0-130.447s94.425-36.022,130.447,0S355.248,283.388,319.226,319.41z"/>
<path d="M507.543,446.267l-81.556-81.556c-2.755-2.755-6.419-4.273-10.316-4.273s-7.561,1.518-10.316,4.273l-3.723,3.723  l-37.81-37.809c35.676-51.205,31.423-121.983-12.758-168.52V7.613c0-4.206-3.409-7.613-7.613-7.613H100.616  c-4.205,0-7.613,3.408-7.613,7.613s3.409,7.613,7.613,7.613h235.219v37.037H15.419V38.56h119.94c4.205,0,7.613-3.408,7.613-7.613  s-3.409-7.613-7.613-7.613H15.419v-8.106H67.7c4.205,0,7.613-3.408,7.613-7.613S71.904,0,67.7,0H7.805  C3.6,0,0.192,3.408,0.192,7.613v403.479c0,4.206,3.409,7.613,7.613,7.613H343.45c4.205,0,7.613-3.408,7.613-7.613v-26.466  l17.189,17.189l-3.723,3.723c-2.755,2.756-4.273,6.42-4.273,10.316c0,3.897,1.518,7.561,4.273,10.317l81.555,81.556  c2.755,2.755,6.419,4.273,10.316,4.273c3.897,0,7.561-1.518,10.316-4.273l40.827-40.827v-0.001  C513.23,461.211,513.23,451.957,507.543,446.267z M337.838,338.022c-46.228,46.228-121.445,46.228-167.673,0  c-46.227-46.227-46.227-121.446,0-167.673c23.114-23.114,53.475-34.671,83.836-34.671s60.722,11.557,83.836,34.671  C384.065,216.578,384.065,291.795,337.838,338.022z M148.537,161.382v-52.781h52.781v22.611  c-15.237,6.505-29.505,15.958-41.919,28.371c-0.594,0.594-1.173,1.197-1.754,1.799H148.537z M303.013,129.71  c-16.898-6.626-34.879-9.692-52.781-9.192V108.6h52.781V129.71z M335.835,403.479H15.419V67.491h320.418v80.84  c-5.616-4.348-11.504-8.179-17.595-11.51v-35.834c0-4.206-3.409-7.613-7.613-7.613H242.62c-4.205,0-7.613,3.408-7.613,7.613v20.819  c-6.222,0.885-12.391,2.211-18.461,3.97v-24.789c0-4.206-3.409-7.613-7.613-7.613h-68.007c-4.205,0-7.613,3.408-7.613,7.613v68.007  c0,4.206,3.409,7.613,7.613,7.613h4.074c-37.204,52.218-32.41,125.37,14.402,172.182c26.082,26.082,60.342,39.122,94.603,39.122  c26.782,0,53.564-7.97,76.439-23.907l5.394,5.393v34.081H335.835z M342.493,354.521c2.081-1.837,4.123-3.742,6.113-5.731  c1.99-1.99,3.894-4.032,5.731-6.113l36.526,36.525l-11.845,11.845L342.493,354.521z M456.4,496.508l-80.654-80.654l8.652-8.652  c0.001-0.001,0.003-0.002,0.004-0.004c0.001-0.002,0.002-0.003,0.004-0.004l22.608-22.608h0.001  c0.001-0.001,0.001-0.001,0.001-0.001l8.656-8.656l80.654,80.653L456.4,496.508z"/>
<path d="M254.002,154.333c-26.671,0-51.747,10.387-70.607,29.247c-18.86,18.86-29.247,43.935-29.247,70.607  s10.387,51.747,29.247,70.607c18.86,18.859,43.935,29.247,70.607,29.247c26.671,0,51.747-10.387,70.607-29.247  c18.86-18.86,29.247-43.935,29.247-70.607s-10.387-51.747-29.247-70.607C305.749,164.721,280.673,154.333,254.002,154.333z   M169.376,254.186c0-22.605,8.802-43.856,24.786-59.839c15.984-15.984,37.236-24.787,59.84-24.787s43.857,8.803,59.84,24.787  c7.829,7.829,13.921,16.926,18.114,26.822H204.604c-4.205,0-7.613,3.408-7.613,7.613v87.938c-0.958-0.876-1.904-1.77-2.828-2.694  C178.179,298.043,169.376,276.791,169.376,254.186z M313.843,314.026c-15.984,15.984-37.236,24.787-59.84,24.787  c-14.892,0-29.186-3.843-41.785-11.021v-91.395h124.528c1.231,5.785,1.883,11.736,1.883,17.79  C338.629,276.791,329.826,298.043,313.843,314.026z"/>
<path d="M108.964,93.373h-44.35c-4.205,0-7.613,3.408-7.613,7.613s3.409,7.613,7.613,7.613h36.736v52.781H48.57v-60.394  c0-4.206-3.409-7.613-7.613-7.613s-7.613,3.408-7.613,7.613v68.007c0,4.206,3.409,7.613,7.613,7.613h68.007  c4.205,0,7.613-3.408,7.613-7.613v-68.007C116.577,96.782,113.169,93.373,108.964,93.373z"/>
<path d="M108.964,192.104H40.956c-4.205,0-7.613,3.408-7.613,7.613v68.007c0,4.206,3.409,7.613,7.613,7.613h68.007  c4.205,0,7.613-3.408,7.613-7.613v-68.007C116.577,195.513,113.169,192.104,108.964,192.104z M101.35,260.111H48.57v-52.781h52.781  V260.111z"/>
<path d="M108.964,290.483H40.956c-4.205,0-7.613,3.408-7.613,7.613v68.008c0,4.206,3.409,7.613,7.613,7.613h68.007  c4.205,0,7.613-3.408,7.613-7.613v-68.008C116.577,293.892,113.169,290.483,108.964,290.483z M101.35,358.49H48.57V305.71h52.781  V358.49z"/>
<path d="M256.003,259.945h-3.729v-3.729c0-4.206-3.409-7.613-7.613-7.613c-4.205,0-7.613,3.408-7.613,7.613v3.729h-3.729  c-4.205,0-7.613,3.408-7.613,7.613s3.409,7.613,7.613,7.613h3.729v3.729c0,4.206,3.409,7.613,7.613,7.613  c4.205,0,7.613-3.408,7.613-7.613v-3.729h3.729c4.205,0,7.613-3.408,7.613-7.613S260.207,259.945,256.003,259.945z"/>
<g>
</g>
<g>
</g>
<g>
</g>
<g>
</g>
<g>
</g>
<g>
</g>
<g>
</g>
<g>
</g>
<g>
</g>
<g>
</g>
<g>
</g>
<g>
</g>
<g>
</g>
<g>
</g>
<g>
</g>
</svg>
